<svg style="position: absolute; width: 0; height: 0; overflow: hidden;" version="1.1" xmlns="http://www.w3.org/2000/svg" xmlns:xlink="http://www.w3.org/1999/xlink">
	<defs>
		<symbol id="th-large" viewBox="0 0 999.9 999.9">
			<path d="M0 999.9l0-437.4 437.5 0 0 437.4-437.5 0z m0-562.4l0-437.5 437.5 0 0 437.5-437.5 0z m562.5 562.4l0-437.4 437.4 0 0 437.4-437.4 0z m0-562.4l0-437.5 437.4 0 0 437.5-437.4 0z"></path>
		</symbol>
		<symbol id="reload" viewBox="2.219 3.214 20.096 17.472">
			<path d="M 18.9918,11.9965L 22.3152,11.9965L 17.3654,16.9462L 12.4157,11.9965L 16.9694,11.9965C 16.9765,10.462 16.4179,8.92762 15.2441,7.75382C 12.9036,5.4133 9.09935,5.4133 6.75882,7.75382C 4.4183,10.0943 4.4183,13.8986 6.75883,16.2391C 8.60437,18.0846 11.3551,18.4736 13.5824,17.4058L 15.0532,18.8766C 11.9842,20.6867 7.98212,20.2908 5.34461,17.6533C 2.2192,14.5279 2.22628,9.47209 5.35168,6.34668C 8.47704,3.22133 13.5329,3.2142 16.6583,6.33961C 18.221,7.90231 18.9918,9.94585 18.9918,11.9965 Z "></path>
		</symbol>
		<symbol id="Experiment" viewBox="0 0 128 128">
<path fill-rule="evenodd" clip-rule="evenodd" fill="#AED581" d="M60 32c6.618 0 12-5.383 12-12S66.618 8 60 8c-6.617 0-12 5.383-12 12s5.383 12 12 12zm0-16c2.211 0 4 1.789 4 4s-1.789 4-4 4-4-1.789-4-4 1.79-4 4-4zm16.001-8c2.211 0 4-1.789 4-4s-1.789-4-4-4-4 1.789-4 4 1.789 4 4 4zM24 120h8v-8h-8v8zm0-16h8v-8l-8 8zm8 0v8h8v-8h-8zm8-16h-8v8h8v-8zm8-8h-8v8h8v-8zm-8 16v8h8v-8h-8zm0 24h8v-8h-8v8zm8-16v8h8v-8h-8zm8-8v-8h-8v8h8zm8-16h-8v8h8v-8zm-8 16v8h8v-8h-8zm0 24h8v-8h-8v8zm8-16v8h8v-8h-8zm8.001-8v-8h-8v8h8zm8-16h-8v8h8v-8zm-8 16v8h8v-8h-8zm0 24h8v-8h-8v8zm8-16v8h8v-8h-8zm8-8v-8h-8v8h8zm8 8v-8h-8v8h8zm-8 16h8v-8h-8v8zm8-16v8h8v-8h-8z" xmlns="http://www.w3.org/2000/svg" /><path fill="#546E7A" d="M110.415 110.047L80.001 58.938V48h4c2.211 0 4-1.789 4-4s-1.789-4-4-4h-8c-2.211 0-4 1.789-4 4v16c0 .695.184 1.383.527 1.984l30.645 51.578a4.003 4.003 0 0 1 .418 4.203 4.006 4.006 0 0 1-3.59 2.234H28a4.007 4.007 0 0 1-3.59-2.234 4.003 4.003 0 0 1 .418-4.203l30.645-51.578A4.006 4.006 0 0 0 56 60V44c0-2.211-1.789-4-4-4h-8c-2.211 0-4 1.789-4 4s1.789 4 4 4h4v10.938l-30.418 51.109c-2.127 3.711-2.109 8.273.039 11.977S23.723 128 28 128h72c4.277 0 8.23-2.273 10.379-5.977s2.165-8.265.036-11.976z" xmlns="http://www.w3.org/2000/svg" />

		</symbol>
	</defs>
</svg>
