<?xml version="1.0" encoding="UTF-8"?>
<svg width="41px" height="48px" viewBox="0 0 41 48" version="1.1" xmlns="http://www.w3.org/2000/svg" xmlns:xlink="http://www.w3.org/1999/xlink">
    <!-- Generator: Sketch 46.2 (44496) - http://www.bohemiancoding.com/sketch -->
    <title>apple1</title>
    <desc>Created with Sketch.</desc>
    <defs/>
    <g id="Page-1" stroke="none" stroke-width="1" fill="none" fill-rule="evenodd">
        <g id="Desktop-HD" transform="translate(-269.000000, -570.000000)">
            <g id="DL-MAC" transform="translate(255.000000, 559.000000)">
                <g id="apple1" transform="translate(14.096386, 11.076923)">
                    <g id="Shape">
                        <path d="M37.5012124,41.8330746 C36.613,43.2773731 35.7247876,44.360597 34.653708,45.3660896 C33.4520088,46.4235224 33.1123982,47.352 30.3432655,47.7134328 C28.3839735,48.0745075 26.6859204,47.352 26.032823,47.0686567 C24.073531,46.1656119 23.0543363,45.8822687 21.8791239,45.8822687 C20.7296726,45.8822687 19.7630885,46.1659701 17.8299204,47.0428657 C17.2290708,47.352 15.6093894,48.0487164 13.6239735,47.6876418 C11.5863097,47.3265672 10.541354,46.5528358 9.78376106,45.9080597 C8.21632743,44.5411343 7.04075221,43.2515821 5.96967257,41.7557015 L37.5012124,41.8330746 L37.5012124,41.8330746 Z" fill="#1E71B8" fill-rule="nonzero"/>
                        <path d="M1.55509735,17.7700299 C2.46943363,15.7325373 3.67113274,14.3656119 4.87283186,13.4113433 C7.92932743,10.935403 12.9189912,10.7806567 15.2178938,11.3738507 C17.0988142,11.8380896 18.4311327,12.9728955 20.5471681,12.9728955 C22.7676991,12.9728955 24.0474071,11.8638806 25.7980708,11.3738507 C28.0969735,10.8064478 33.1127611,10.9869851 36.3782478,13.4629254 C37.3448319,14.1850746 38.2326814,15.1651343 38.7290354,15.7067463 C37.553823,16.5578507 36.848115,17.1768358 36.2733894,17.7700299 L1.55509735,17.7700299 L1.55509735,17.7700299 Z" fill="#6FB353" fill-rule="nonzero"/>
                        <path d="M36.2737522,17.7700299 C35.7251504,18.3632239 35.333292,18.9306269 34.8891858,19.7301493 C34.3670708,20.6586269 33.7397345,21.9223881 33.5829912,23.8309254 L0.0137876106,23.8309254 C0.0399115044,23.5214328 0.0660353982,23.1861493 0.118283186,22.8508657 C0.431769912,20.8133731 0.928123894,19.1369552 1.55509735,17.7700299 L36.2737522,17.7700299 Z" fill="#FFF22D" fill-rule="nonzero"/>
                        <path d="M33.5829912,23.8309254 C33.556864,24.4152379 33.556864,25.0004039 33.5829912,25.5847164 C33.6613628,27.0032239 34.1577168,28.5764776 34.8108142,29.8402388 L0.666884956,29.7628657 C0.196654867,27.7253731 -0.0645840708,25.6362985 0.0137876106,23.8309254 L33.5829912,23.8309254 L33.5829912,23.8309254 Z" fill="#E0922F" fill-rule="nonzero"/>
                        <path d="M34.8104513,29.8402388 C35.0777948,30.3875529 35.4017098,30.9061279 35.7770354,31.3877015 C38.0236903,34.2247164 38.9902743,34.2247164 40.7405752,35.1016119 C40.6103186,35.4107463 40.505823,35.694806 40.3748407,35.9527164 L2.65230088,35.8753433 C1.92083186,34.3020896 1.16323894,32.0840597 0.666884956,29.7628657 L34.8104513,29.8402388 L34.8104513,29.8402388 Z" fill="#CC2229" fill-rule="nonzero"/>
                        <path d="M40.3748407,35.9527164 C39.278,38.4802388 38.3894248,40.3368358 37.5012124,41.8330746 L5.9700354,41.7557015 C4.92507965,40.2340299 3.98461947,38.5572537 2.91353982,36.4681791 C2.83516814,36.2876418 2.73067257,36.0813134 2.65230088,35.8753433 L40.3748407,35.9527164 Z" fill="#5A308D" fill-rule="nonzero"/>
                        <path d="M29.4289292,3.66232836 C29.2460619,4.9518806 28.5929646,6.60250746 27.5480088,7.6599403 C26.4243186,8.84632836 24.6743805,10.1358806 23.6290619,10.7806567 C23.0543363,11.1417313 21.5652743,11.1933134 20.3378142,11.3222687 C20.1810708,10.2390448 20.1549469,9.31056716 20.4945575,8.30471642 C20.9386637,7.11832836 21.5137522,5.4161194 22.4277257,4.22973134 C23.5510531,2.75964179 24.8311239,1.75379104 25.536469,1.39271642 C26.477292,0.928477612 28.0447257,0.232119403 29.4028053,0 C29.4554159,1.18638806 29.6382832,2.52752239 29.4289292,3.66232836 L29.4289292,3.66232836 Z" fill="#6FB353" fill-rule="nonzero"/>
                    </g>
                </g>
            </g>
        </g>
    </g>
</svg>