<?xml version="1.0" encoding="UTF-8"?>
<svg width="722px" height="21px" viewBox="0 0 722 20" version="1.1" xmlns="http://www.w3.org/2000/svg" xmlns:xlink="http://www.w3.org/1999/xlink">
    <!-- Generator: Sketch 41.2 (35397) - http://www.bohemiancoding.com/sketch -->
    <title>Page 1</title>
    <desc>Created with Sketch.</desc>
    <defs>
        <polygon id="path-1" points="0 20.7997505 719.643166 20.7997505 719.643166 0.535549452 0 0.535549452"/>
    </defs>
    <g id="Symbols" stroke="none" stroke-width="1" fill="#275880" fill-rule="evenodd">
        <g id="Border2">
            <g id="Page-1">
                <g id="Group-3" transform="translate(0.000000, 0.489852)" fill="#275880">
                    <path d="M20.2695324,3.18306882 L20.2695324,14.7216298 L16.8828569,14.7216298 L16.8828569,0.36760916 C16.8828569,0.0451895238 17.0656459,-0.0208176458 17.2941323,0.205129973 L20.2695324,3.18306882 Z M14.6386131,16.9861835 L19.9953488,16.9861835 C20.292381,16.9861835 20.360927,17.1715113 20.1552892,17.377149 L17.1545018,20.3068518 L14.6386131,20.3068518 L11.2493988,16.9861835 L11.2493988,0.0705768967 L14.6386131,0.0705768967 L14.6386131,16.9861835 Z M0.0104088229,17.2603671 L0.0104088229,5.70149621 L3.37677447,5.70149621 L3.37677447,20.0326682 C3.37677447,20.3297005 3.21429528,20.3957077 2.98580893,20.1926087 L0.0104088229,17.2603671 Z M3.10005211,0.0705768967 L5.64132814,0.0705768967 L9.00769378,3.45725244 L9.00769378,20.3068518 L5.64132814,20.3068518 L5.64132814,3.45725244 L0.28459245,3.45725244 C-0.0352884484,3.45725244 -0.0809857196,3.29731199 0.124652001,3.06882564 L3.10005211,0.0705768967 Z" id="Fill-1"/>
                </g>
                <path d="M39.4644173,0.560429078 L42.830783,3.94710462 L42.830783,17.4760357 L39.4644173,20.796704 L33.833498,20.796704 L33.833498,17.4760357 L39.4644173,17.4760357 L39.4644173,3.94710462 L33.833498,3.94710462 L33.833498,0.560429078 L39.4644173,0.560429078 Z M28.1797301,15.211482 L37.1998637,15.211482 L37.1998637,11.8476551 L28.1797301,11.8476551 L28.1797301,15.211482 Z M28.1797301,9.58056268 L37.1998637,9.58056268 L37.1998637,6.21419703 L28.1797301,6.21419703 L28.1797301,9.58056268 Z M25.9354863,3.94710462 L25.9354863,17.4760357 L31.5664056,17.4760357 L31.5664056,20.796704 L25.9354863,20.796704 L22.5488108,17.4760357 L22.5488108,3.94710462 L25.9354863,0.560429078 L31.5664056,0.560429078 L31.5664056,3.94710462 L25.9354863,3.94710462 Z" id="Fill-4" fill="#275880"/>
                <mask id="mask-2" fill="white">
                    <use xlink:href="#path-1"/>
                </mask>
                <g id="Clip-7"/>
                <path d="M56.3929715,9.58107042 L59.7593371,9.58107042 L59.7593371,6.19185614 L56.3929715,6.19185614 L56.3929715,9.58107042 Z M62.0238908,0.560936825 L65.3902564,3.94761237 L65.3902564,17.4765434 L62.0238908,20.7972118 L48.4949597,20.7972118 L45.1082842,17.4765434 L45.1082842,3.67342874 L48.1065329,0.695489902 C48.3350193,0.492390919 48.4949597,0.535549452 48.4949597,0.855430351 L48.4949597,17.4765434 L62.0238908,17.4765434 L62.0238908,3.94761237 L54.1258791,3.94761237 L54.1258791,11.8456241 L59.7593371,11.8456241 L59.7593371,15.2119897 L54.1258791,15.2119897 L50.7392035,11.8456241 L50.7392035,3.94761237 L54.1258791,0.560936825 L62.0238908,0.560936825 Z" id="Fill-6" fill="#275880" mask="url(#mask-2)"/>
                <path d="M82.3193183,0.560429078 L82.3193183,3.92425599 L73.2991847,3.92425599 L73.2991847,0.535041705 L82.3193183,0.560429078 Z M87.676054,17.453187 C87.9730863,17.453187 88.0416322,17.6359761 87.8359944,17.8416138 L84.8605943,20.796704 L70.7807573,20.7738554 L67.8053572,17.8416138 C67.5768708,17.6359761 67.6454168,17.453187 67.9652977,17.453187 L87.676054,17.453187 Z M87.9502376,3.65007236 L87.9502376,11.8222677 L84.583872,15.211482 L82.3193183,15.211482 L78.9529527,11.8222677 L78.9529527,9.55771404 L76.688399,9.55771404 L76.688399,11.8222677 L73.2991847,15.1860946 L71.0574797,15.1860946 L67.6682654,11.8222677 L67.6682654,3.65007236 L70.6665141,0.674672256 C70.8721519,0.469034535 71.0574797,0.535041705 71.0574797,0.834612705 L71.0574797,11.8222677 L73.2991847,11.8222677 L73.2991847,9.55771404 L76.688399,6.19134839 L78.9529527,6.19134839 L82.3193183,9.55771404 L82.3193183,11.8222677 L84.583872,11.8222677 L84.583872,0.834612705 C84.583872,0.535041705 84.7691998,0.469034535 84.9748375,0.674672256 L87.9502376,3.65007236 Z" id="Fill-8" fill="#275880" mask="url(#mask-2)"/>
                <path d="M99.2476186,6.21343541 L99.2247699,6.21343541 L95.860943,9.57980105 L90.2300237,9.57980105 L90.2300237,6.19058677 L95.860943,6.19058677 L95.860943,3.96919164 L90.527056,3.96919164 C90.2046363,3.96919164 90.1360904,3.78640255 90.3671155,3.5579162 L93.3425156,0.582516092 L95.860943,0.582516092 L99.2476186,3.96919164 L99.2476186,6.21343541 Z M110.12103,3.28373257 L110.511996,3.67215938 L110.511996,17.475274 L107.14563,20.7959424 L93.6166992,20.7959424 L90.2300237,17.475274 L90.2300237,15.2107204 L93.6166992,11.8468935 L101.514711,11.8468935 L101.514711,0.582516092 L104.878538,0.582516092 L104.878538,11.8468935 L101.514711,15.2107204 L93.6166992,15.2107204 L93.6166992,17.475274 L107.14563,17.475274 L107.14563,0.85669972 C107.14563,0.536818821 107.305571,0.468272914 107.534057,0.696759271 L110.12103,3.28373257 Z" id="Fill-9" fill="#275880" mask="url(#mask-2)"/>
                <path d="M124.073169,9.58107042 L127.439535,9.58107042 L127.439535,6.19185614 L124.073169,6.19185614 L124.073169,9.58107042 Z M129.706627,0.560936825 L133.070454,3.94761237 L133.070454,17.4765434 L129.706627,20.7972118 L116.177696,20.7972118 L112.788482,17.4765434 L112.788482,3.67342874 L115.78673,0.695489902 C116.017755,0.492390919 116.177696,0.535549452 116.177696,0.855430351 L116.177696,17.4765434 L129.706627,17.4765434 L129.706627,3.94761237 L121.808615,3.94761237 L121.808615,11.8456241 L127.439535,11.8456241 L127.439535,15.2119897 L121.808615,15.2119897 L118.419401,11.8456241 L118.419401,3.94761237 L121.808615,0.560936825 L129.706627,0.560936825 Z" id="Fill-10" fill="#275880" mask="url(#mask-2)"/>
                <path d="M152.265847,11.8220138 L155.632212,11.8220138 L155.632212,17.4529331 L152.265847,20.7964502 L150.001293,20.7964502 L146.634927,17.4529331 L146.634927,9.51176289 L144.367835,9.51176289 L144.367835,17.4529331 L140.981159,20.7964502 L138.736916,20.7964502 L135.35024,17.4529331 L135.35024,11.8220138 L138.736916,11.8220138 L138.736916,17.4529331 L140.981159,17.4529331 L140.981159,9.51176289 L144.367835,6.12254861 L146.680624,6.12254861 L150.001293,9.51176289 L150.001293,17.4529331 L152.265847,17.4529331 L152.265847,11.8220138 Z M138.736916,0.534787831 L152.265847,0.534787831 L155.632212,3.92400212 L155.632212,9.55746017 L152.265847,9.55746017 L152.265847,3.92400212 L138.736916,3.92400212 L138.736916,9.55746017 L135.35024,9.55746017 L135.35024,3.92400212 L138.736916,0.534787831 Z" id="Fill-11" fill="#275880" mask="url(#mask-2)"/>
                <path d="M174.804756,3.92476374 L178.191432,3.92476374 L178.191432,0.535549452 L174.804756,0.535549452 L174.804756,3.92476374 Z M172.560512,17.4536948 L177.917248,17.4536948 C178.21428,17.4536948 178.282826,17.6364838 178.077189,17.8421216 L175.101788,20.7972118 L172.560512,20.7972118 L172.560512,20.6804299 L172.560512,20.7718244 L169.171298,17.4308461 L169.171298,15.1637537 L172.560512,11.7999268 L174.804756,11.7999268 L174.804756,6.14615887 L178.191432,6.14615887 L178.191432,11.7999268 L174.804756,15.1637537 L172.560512,15.1637537 L172.560512,17.4536948 Z M169.171298,9.55822179 L169.171298,3.92476374 L166.929593,3.92476374 L166.929593,3.94761237 L166.929593,9.55822179 L163.540379,9.55822179 L163.540379,3.94761237 L166.929593,0.560936825 L166.929593,0.535549452 L169.194147,0.535549452 L169.194147,0.583785461 L172.560512,3.94761237 L172.560512,9.55822179 L169.171298,9.55822179 Z M161.298674,11.7999268 L163.540379,11.7999268 L166.929593,15.1866024 L166.929593,17.4536948 L163.540379,20.7972118 L163.540379,20.7718244 L161.021951,20.7718244 L159.328614,19.1241839 L158.046551,17.8192729 C157.840914,17.5907866 157.886611,17.4308461 158.206492,17.4308461 L163.540379,17.4308461 L163.540379,15.1866024 L161.298674,15.1866024 L157.90946,11.7999268 L157.90946,6.1690075 L161.298674,6.1690075 L161.298674,11.7999268 Z M157.90946,3.94761237 L161.296135,3.94761237 L161.296135,0.560936825 L157.90946,0.560936825 L157.90946,3.94761237 Z" id="Fill-12" fill="#275880" mask="url(#mask-2)"/>
                <path d="M191.753366,15.2119897 L200.750651,15.2119897 L200.750651,11.8481628 L191.753366,11.8481628 L191.753366,15.2119897 Z M191.755905,9.58107042 L200.75319,9.58107042 L200.75319,6.19185614 L191.755905,6.19185614 L191.755905,9.58107042 Z M200.476468,17.4765434 C200.7735,17.4765434 200.842046,17.6593325 200.636408,17.8675089 L197.661008,20.7972118 L183.58371,20.7972118 L180.60831,17.8675089 C180.377285,17.6593325 180.44583,17.4765434 180.76825,17.4765434 L200.476468,17.4765434 Z M189.488813,11.8456241 L186.102137,15.2119897 L183.857893,15.2119897 L180.471218,11.8456241 L180.471218,6.19185614 L180.471218,3.67342874 L180.882493,3.2824632 L183.469467,0.695489902 C183.697953,0.469542283 183.857893,0.535549452 183.857893,0.855430351 L183.857893,11.8456241 L186.102137,11.8456241 L186.102137,3.97046101 L189.465964,0.583785461 L195.487849,0.583785461 L197.661008,0.583785461 L200.636408,3.55918557 C200.867433,3.78767192 200.7735,3.97046101 200.476468,3.97046101 L189.488813,3.97046101 L189.488813,11.8456241 Z" id="Fill-13" fill="#275880" mask="url(#mask-2)"/>
                <path d="M223.311902,3.672921 L223.311902,15.211482 L219.945536,15.211482 L219.945536,0.857461341 C219.945536,0.535041705 220.108015,0.469034535 220.336502,0.694982154 L223.311902,3.672921 Z M214.291768,9.58056268 L217.680983,9.58056268 L217.680983,6.19134839 L214.291768,6.19134839 L214.291768,9.58056268 Z M208.663388,9.58056268 L212.050063,9.58056268 L212.050063,6.19134839 L208.663388,6.19134839 L208.663388,9.58056268 Z M223.037718,17.4760357 C223.334751,17.4760357 223.403296,17.6613635 223.197659,17.8670012 L220.222259,20.796704 L206.142422,20.796704 L203.167021,17.8670012 C202.938535,17.6613635 203.007081,17.4760357 203.326962,17.4760357 L223.037718,17.4760357 Z M217.680983,15.211482 L206.419144,15.211482 L203.02993,11.8476551 L203.02993,3.94710462 L206.419144,0.560429078 L217.680983,0.560429078 L217.680983,3.94710462 L206.419144,3.94710462 L206.419144,11.8476551 L217.680983,11.8476551 L217.680983,15.211482 Z" id="Fill-14" fill="#275880" mask="url(#mask-2)"/>
                <path d="M242.505264,20.7972118 L245.871629,20.7972118 L245.871629,17.4765434 L242.505264,17.4765434 L242.505264,20.7972118 Z M225.592196,20.7972118 L228.978871,20.7972118 L228.978871,17.4765434 L225.592196,17.4765434 L225.592196,20.7972118 Z M236.876883,17.4765434 L236.876883,15.2119897 L240.24071,11.8456241 L245.871629,11.8456241 L245.871629,15.2322996 L240.24071,15.2322996 L240.24071,17.4765434 L236.876883,20.7972118 L234.609791,20.7972118 L231.220576,17.4765434 L231.220576,15.2119897 L225.589657,15.2119897 L225.589657,11.8456241 L231.266274,11.8456241 L234.609791,15.2119897 L234.609791,17.4765434 L236.876883,17.4765434 Z M242.507802,0.560936825 L245.871629,3.92476374 L245.871629,9.58107042 L242.507802,9.58107042 L242.507802,3.94761237 L240.24071,3.94761237 L240.24071,6.21470477 L236.876883,9.58107042 L234.609791,9.58107042 L231.220576,6.21470477 L231.220576,3.94761237 L228.978871,3.94761237 L228.978871,9.58107042 L225.589657,9.58107042 L225.589657,3.94761237 L228.978871,0.560936825 L231.220576,0.560936825 L234.609791,3.94761237 L234.609791,6.19185614 L236.876883,6.19185614 L236.876883,3.92476374 L240.24071,0.560936825 L242.507802,0.560936825 Z" id="Fill-15" fill="#275880" mask="url(#mask-2)"/>
                <path d="M268.432626,3.672921 L268.432626,15.211482 L265.04595,15.211482 L265.04595,0.857461341 C265.04595,0.535041705 265.228739,0.469034535 265.457226,0.694982154 L268.432626,3.672921 Z M262.801707,17.4760357 L268.158442,17.4760357 C268.455475,17.4760357 268.52402,17.6613635 268.318383,17.8670012 L265.317595,20.796704 L262.801707,20.796704 L259.412492,17.4760357 L259.412492,0.560429078 L262.801707,0.560429078 L262.801707,17.4760357 Z M248.173502,17.7502193 L248.173502,6.19134839 L251.539868,6.19134839 L251.539868,20.5225204 C251.539868,20.8195527 251.377389,20.8855598 251.148902,20.6824609 L248.173502,17.7502193 Z M251.263146,0.560429078 L253.804422,0.560429078 L257.170787,3.94710462 L257.170787,20.796704 L253.804422,20.796704 L253.804422,3.94710462 L248.447686,3.94710462 C248.127805,3.94710462 248.082108,3.78716418 248.287745,3.55867782 L251.263146,0.560429078 Z" id="Fill-16" fill="#275880" mask="url(#mask-2)"/>
                <path d="M287.62878,3.94761237 L290.995146,3.94761237 L290.995146,0.560936825 L287.62878,0.560936825 L287.62878,3.94761237 Z M281.995322,3.97046101 L285.361688,3.97046101 L285.361688,0.583785461 L281.995322,0.583785461 L281.995322,3.97046101 Z M276.341554,15.2119897 L279.730768,11.8456241 L281.995322,11.8456241 L285.361688,15.2119897 L285.361688,20.7972118 L281.995322,20.7972118 L281.995322,15.2119897 L279.730768,15.2119897 L279.730768,20.7972118 L276.341554,20.7972118 L276.341554,15.2119897 Z M276.341554,3.97046101 L279.72823,3.97046101 L279.72823,0.583785461 L276.341554,0.583785461 L276.341554,3.97046101 Z M287.62878,6.19185614 L290.992607,9.58107042 L290.992607,15.2119897 L290.992607,17.750727 L288.017207,20.6804299 C287.788721,20.8860676 287.62878,20.8200604 287.62878,20.5204894 L287.62878,15.2119897 L287.62878,9.58107042 L274.099849,9.58107042 L274.099849,20.5204894 C274.099849,20.8200604 273.939909,20.8860676 273.708884,20.6804299 L270.710635,17.750727 L270.710635,9.58107042 L274.099849,6.19185614 L287.62878,6.19185614 Z M270.710635,3.97046101 L274.099849,3.97046101 L274.099849,0.583785461 L270.710635,0.583785461 L270.710635,3.97046101 Z" id="Fill-17" fill="#275880" mask="url(#mask-2)"/>
                <path d="M310.165151,3.92476374 L313.551827,3.92476374 L313.551827,0.535549452 L310.165151,0.535549452 L310.165151,3.92476374 Z M307.923446,17.4536948 L313.277643,17.4536948 C313.577214,17.4536948 313.64576,17.6364838 313.437583,17.8421216 L310.462183,20.7972118 L307.923446,20.7972118 L307.923446,20.6804299 L307.923446,20.7718244 L304.534232,17.4308461 L304.534232,15.1637537 L307.923446,11.7999268 L310.165151,11.7999268 L310.165151,6.14615887 L313.551827,6.14615887 L313.551827,11.7999268 L310.165151,15.1637537 L307.923446,15.1637537 L307.923446,17.4536948 Z M304.534232,9.55822179 L304.534232,3.92476374 L302.289988,3.92476374 L302.289988,3.94761237 L302.289988,9.55822179 L298.903313,9.55822179 L298.903313,3.94761237 L302.289988,0.560936825 L302.289988,0.535549452 L304.55708,0.535549452 L304.55708,0.583785461 L307.923446,3.94761237 L307.923446,9.55822179 L304.534232,9.55822179 Z M296.659069,11.7999268 L298.903313,11.7999268 L302.289988,15.1866024 L302.289988,17.4536948 L298.903313,20.7972118 L298.903313,20.7718244 L296.384885,20.7718244 L294.689009,19.1241839 L293.409485,17.8192729 C293.203847,17.5907866 293.247006,17.4308461 293.569425,17.4308461 L298.903313,17.4308461 L298.903313,15.1866024 L296.659069,15.1866024 L293.272393,11.7999268 L293.272393,6.1690075 L296.659069,6.1690075 L296.659069,11.7999268 Z M293.272393,3.94761237 L296.659069,3.94761237 L296.659069,0.560936825 L293.272393,0.560936825 L293.272393,3.94761237 Z" id="Fill-18" fill="#275880" mask="url(#mask-2)"/>
                <path d="M332.747219,3.94761237 L336.113585,3.94761237 L336.113585,0.560936825 L332.747219,0.560936825 L332.747219,3.94761237 Z M327.1163,3.97046101 L330.482666,3.97046101 L330.482666,0.583785461 L327.1163,0.583785461 L327.1163,3.97046101 Z M321.462532,15.2119897 L324.851746,11.8456241 L327.1163,11.8456241 L330.482666,15.2119897 L330.482666,20.7972118 L327.1163,20.7972118 L327.1163,15.2119897 L324.851746,15.2119897 L324.851746,20.7972118 L321.462532,20.7972118 L321.462532,15.2119897 Z M321.462532,3.97046101 L324.849208,3.97046101 L324.849208,0.583785461 L321.462532,0.583785461 L321.462532,3.97046101 Z M332.747219,6.19185614 L336.113585,9.58107042 L336.113585,15.2119897 L336.113585,17.750727 L333.138185,20.6804299 C332.909699,20.8860676 332.747219,20.8200604 332.747219,20.5204894 L332.747219,15.2119897 L332.747219,9.58107042 L319.220827,9.58107042 L319.220827,20.5204894 C319.220827,20.8200604 319.058348,20.8860676 318.829862,20.6804299 L315.831613,17.750727 L315.831613,9.58107042 L319.220827,6.19185614 L332.747219,6.19185614 Z M315.831613,3.97046101 L319.218288,3.97046101 L319.218288,0.583785461 L315.831613,0.583785461 L315.831613,3.97046101 Z" id="Fill-19" fill="#275880" mask="url(#mask-2)"/>
                <path d="M353.042647,0.560429078 L353.042647,3.92425599 L344.022513,3.92425599 L344.022513,0.535041705 L353.042647,0.560429078 Z M358.399383,17.453187 C358.696415,17.453187 358.764961,17.6359761 358.559323,17.8416138 L355.583923,20.796704 L341.504086,20.7738554 L338.528686,17.8416138 C338.300199,17.6359761 338.368745,17.453187 338.688626,17.453187 L358.399383,17.453187 Z M358.673566,3.65007236 L358.673566,11.8222677 L355.307201,15.211482 L353.042647,15.211482 L349.676281,11.8222677 L349.676281,9.55771404 L347.411728,9.55771404 L347.411728,11.8222677 L344.022513,15.1860946 L341.780808,15.1860946 L338.391594,11.8222677 L338.391594,3.65007236 L341.389843,0.674672256 C341.59548,0.469034535 341.780808,0.535041705 341.780808,0.834612705 L341.780808,11.8222677 L344.022513,11.8222677 L344.022513,9.55771404 L347.411728,6.19134839 L349.676281,6.19134839 L353.042647,9.55771404 L353.042647,11.8222677 L355.307201,11.8222677 L355.307201,0.834612705 C355.307201,0.535041705 355.492528,0.469034535 355.698166,0.674672256 L358.673566,3.65007236 Z" id="Fill-20" fill="#275880" mask="url(#mask-2)"/>
                <path d="M381.234055,3.672921 L381.234055,15.211482 L377.84738,15.211482 L377.84738,0.857461341 C377.84738,0.535041705 378.030169,0.469034535 378.258655,0.694982154 L381.234055,3.672921 Z M375.603136,17.4760357 L380.959871,17.4760357 C381.256904,17.4760357 381.32545,17.6613635 381.119812,17.8670012 L378.119024,20.796704 L375.603136,20.796704 L372.213922,17.4760357 L372.213922,0.560429078 L375.603136,0.560429078 L375.603136,17.4760357 Z M360.974932,17.7502193 L360.974932,6.19134839 L364.341297,6.19134839 L364.341297,20.5225204 C364.341297,20.8195527 364.178818,20.8855598 363.950332,20.6824609 L360.974932,17.7502193 Z M364.064575,0.560429078 L366.605851,0.560429078 L369.972216,3.94710462 L369.972216,20.796704 L366.605851,20.796704 L366.605851,3.94710462 L361.249115,3.94710462 C360.929234,3.94710462 360.883537,3.78716418 361.089175,3.55867782 L364.064575,0.560429078 Z" id="Fill-21" fill="#275880" mask="url(#mask-2)"/>
                <path d="M400.42894,0.560429078 L403.795306,3.94710462 L403.795306,17.4760357 L400.42894,20.796704 L394.798021,20.796704 L394.798021,17.4760357 L400.42894,17.4760357 L400.42894,3.94710462 L394.798021,3.94710462 L394.798021,0.560429078 L400.42894,0.560429078 Z M389.144253,15.211482 L398.164386,15.211482 L398.164386,11.8476551 L389.144253,11.8476551 L389.144253,15.211482 Z M389.144253,9.58056268 L398.164386,9.58056268 L398.164386,6.21419703 L389.144253,6.21419703 L389.144253,9.58056268 Z M386.900009,3.94710462 L386.900009,17.4760357 L392.530928,17.4760357 L392.530928,20.796704 L386.900009,20.796704 L383.513333,17.4760357 L383.513333,3.94710462 L386.900009,0.560429078 L392.530928,0.560429078 L392.530928,3.94710462 L386.900009,3.94710462 Z" id="Fill-22" fill="#275880" mask="url(#mask-2)"/>
                <path d="M417.358256,9.58107042 L420.724621,9.58107042 L420.724621,6.19185614 L417.358256,6.19185614 L417.358256,9.58107042 Z M422.989175,0.560936825 L426.355541,3.94761237 L426.355541,17.4765434 L422.989175,20.7972118 L409.460244,20.7972118 L406.073569,17.4765434 L406.073569,3.67342874 L409.071817,0.695489902 C409.300304,0.492390919 409.460244,0.535549452 409.460244,0.855430351 L409.460244,17.4765434 L422.989175,17.4765434 L422.989175,3.94761237 L415.091163,3.94761237 L415.091163,11.8456241 L420.724621,11.8456241 L420.724621,15.2119897 L415.091163,15.2119897 L411.704488,11.8456241 L411.704488,3.94761237 L415.091163,0.560936825 L422.989175,0.560936825 Z" id="Fill-23" fill="#275880" mask="url(#mask-2)"/>
                <path d="M443.283841,0.560429078 L443.283841,3.92425599 L434.263707,3.92425599 L434.263707,0.535041705 L443.283841,0.560429078 Z M448.640577,17.453187 C448.937609,17.453187 449.006155,17.6359761 448.800517,17.8416138 L445.825117,20.796704 L431.74528,20.7738554 L428.76988,17.8416138 C428.541394,17.6359761 428.609939,17.453187 428.92982,17.453187 L448.640577,17.453187 Z M448.91476,3.65007236 L448.91476,11.8222677 L445.548395,15.211482 L443.283841,15.211482 L439.917475,11.8222677 L439.917475,9.55771404 L437.652922,9.55771404 L437.652922,11.8222677 L434.263707,15.1860946 L432.022002,15.1860946 L428.632788,11.8222677 L428.632788,3.65007236 L431.631037,0.674672256 C431.836675,0.469034535 432.022002,0.535041705 432.022002,0.834612705 L432.022002,11.8222677 L434.263707,11.8222677 L434.263707,9.55771404 L437.652922,6.19134839 L439.917475,6.19134839 L443.283841,9.55771404 L443.283841,11.8222677 L445.548395,11.8222677 L445.548395,0.834612705 C445.548395,0.535041705 445.733723,0.469034535 445.93936,0.674672256 L448.91476,3.65007236 Z" id="Fill-24" fill="#275880" mask="url(#mask-2)"/>
                <path d="M460.212141,6.21343541 L460.189293,6.21343541 L456.825466,9.57980105 L451.194546,9.57980105 L451.194546,6.19058677 L456.825466,6.19058677 L456.825466,3.96919164 L451.491579,3.96919164 C451.169159,3.96919164 451.100613,3.78640255 451.329099,3.5579162 L454.307038,0.582516092 L456.825466,0.582516092 L460.212141,3.96919164 L460.212141,6.21343541 Z M471.085553,3.28373257 L471.47398,3.67215938 L471.47398,17.475274 L468.110153,20.7959424 L454.581222,20.7959424 L451.194546,17.475274 L451.194546,15.2107204 L454.581222,11.8468935 L462.479234,11.8468935 L462.479234,0.582516092 L465.843061,0.582516092 L465.843061,11.8468935 L462.479234,15.2107204 L454.581222,15.2107204 L454.581222,17.475274 L468.110153,17.475274 L468.110153,0.85669972 C468.110153,0.536818821 468.270093,0.468272914 468.49858,0.696759271 L471.085553,3.28373257 Z" id="Fill-25" fill="#275880" mask="url(#mask-2)"/>
                <path d="M485.038453,9.58107042 L488.404819,9.58107042 L488.404819,6.19185614 L485.038453,6.19185614 L485.038453,9.58107042 Z M490.669373,0.560936825 L494.035738,3.94761237 L494.035738,17.4765434 L490.669373,20.7972118 L477.140442,20.7972118 L473.753766,17.4765434 L473.753766,3.67342874 L476.752015,0.695489902 C476.980501,0.492390919 477.140442,0.535549452 477.140442,0.855430351 L477.140442,17.4765434 L490.669373,17.4765434 L490.669373,3.94761237 L482.771361,3.94761237 L482.771361,11.8456241 L488.404819,11.8456241 L488.404819,15.2119897 L482.771361,15.2119897 L479.384685,11.8456241 L479.384685,3.94761237 L482.771361,0.560936825 L490.669373,0.560936825 Z" id="Fill-26" fill="#275880" mask="url(#mask-2)"/>
                <path d="M513.230369,11.8220138 L516.596735,11.8220138 L516.596735,17.4529331 L513.230369,20.7964502 L510.963277,20.7964502 L507.59945,17.4529331 L507.59945,9.51176289 L505.332358,9.51176289 L505.332358,17.4529331 L501.945682,20.7964502 L499.701438,20.7964502 L496.314763,17.4529331 L496.314763,11.8220138 L499.701438,11.8220138 L499.701438,17.4529331 L501.945682,17.4529331 L501.945682,9.51176289 L505.332358,6.12254861 L507.645147,6.12254861 L510.963277,9.51176289 L510.963277,17.4529331 L513.230369,17.4529331 L513.230369,11.8220138 Z M499.701438,0.534787831 L513.230369,0.534787831 L516.596735,3.92400212 L516.596735,9.55746017 L513.230369,9.55746017 L513.230369,3.92400212 L499.701438,3.92400212 L499.701438,9.55746017 L496.314763,9.55746017 L496.314763,3.92400212 L499.701438,0.534787831 Z" id="Fill-27" fill="#275880" mask="url(#mask-2)"/>
                <path d="M535.767502,3.92476374 L539.154177,3.92476374 L539.154177,0.535549452 L535.767502,0.535549452 L535.767502,3.92476374 Z M533.525797,17.4536948 L538.879994,17.4536948 C539.179565,17.4536948 539.248111,17.6364838 539.039934,17.8421216 L536.064534,20.7972118 L533.525797,20.7972118 L533.525797,20.6804299 L533.525797,20.7718244 L530.136582,17.4308461 L530.136582,15.1637537 L533.525797,11.7999268 L535.767502,11.7999268 L535.767502,6.14615887 L539.156716,6.14615887 L539.156716,11.7999268 L535.767502,15.1637537 L533.525797,15.1637537 L533.525797,17.4536948 Z M530.136582,9.55822179 L530.136582,3.92476374 L527.892339,3.92476374 L527.892339,3.94761237 L527.892339,9.55822179 L524.505663,9.55822179 L524.505663,3.94761237 L527.892339,0.560936825 L527.892339,0.535549452 L530.159431,0.535549452 L530.159431,0.583785461 L533.525797,3.94761237 L533.525797,9.55822179 L530.136582,9.55822179 Z M522.261419,11.7999268 L524.505663,11.7999268 L527.892339,15.1866024 L527.892339,17.4536948 L524.505663,20.7972118 L524.505663,20.7718244 L521.987236,20.7718244 L520.293898,19.1241839 L519.011836,17.8192729 C518.806198,17.5907866 518.851895,17.4308461 519.171776,17.4308461 L524.505663,17.4308461 L524.505663,15.1866024 L522.261419,15.1866024 L518.874744,11.7999268 L518.874744,6.1690075 L522.261419,6.1690075 L522.261419,11.7999268 Z M518.874744,3.94761237 L522.261419,3.94761237 L522.261419,0.560936825 L518.874744,0.560936825 L518.874744,3.94761237 Z" id="Fill-28" fill="#275880" mask="url(#mask-2)"/>
                <path d="M552.718651,15.2119897 L561.715936,15.2119897 L561.715936,11.8481628 L552.718651,11.8481628 L552.718651,15.2119897 Z M552.718651,9.58107042 L561.715936,9.58107042 L561.715936,6.19185614 L552.718651,6.19185614 L552.718651,9.58107042 Z M561.441752,17.4765434 C561.738784,17.4765434 561.80733,17.6593325 561.601692,17.8675089 L558.626292,20.7972118 L544.546455,20.7972118 L541.571055,17.8675089 C541.342569,17.6593325 541.411115,17.4765434 541.730996,17.4765434 L561.441752,17.4765434 Z M550.454097,11.8456241 L547.064883,15.2119897 L544.823178,15.2119897 L541.433963,11.8456241 L541.433963,6.19185614 L541.433963,3.67342874 L541.845239,3.2824632 L544.432212,0.695489902 C544.660699,0.469542283 544.823178,0.535549452 544.823178,0.855430351 L544.823178,11.8456241 L547.064883,11.8456241 L547.064883,3.97046101 L550.431248,0.583785461 L556.450595,0.583785461 L558.626292,0.583785461 L561.601692,3.55918557 C561.830179,3.78767192 561.738784,3.97046101 561.441752,3.97046101 L550.454097,3.97046101 L550.454097,11.8456241 Z" id="Fill-29" fill="#275880" mask="url(#mask-2)"/>
                <path d="M584.276425,3.672921 L584.276425,15.211482 L580.910059,15.211482 L580.910059,0.857461341 C580.910059,0.535041705 581.072538,0.469034535 581.301025,0.694982154 L584.276425,3.672921 Z M575.256291,9.58056268 L578.645505,9.58056268 L578.645505,6.19134839 L575.256291,6.19134839 L575.256291,9.58056268 Z M569.62791,9.58056268 L573.014586,9.58056268 L573.014586,6.19134839 L569.62791,6.19134839 L569.62791,9.58056268 Z M584.002241,17.4760357 C584.299273,17.4760357 584.367819,17.6613635 584.162181,17.8670012 L581.186781,20.796704 L567.106944,20.796704 L564.131544,17.8670012 C563.903058,17.6613635 563.971604,17.4760357 564.291485,17.4760357 L584.002241,17.4760357 Z M578.645505,15.211482 L567.383667,15.211482 L563.994452,11.8476551 L563.994452,3.94710462 L567.383667,0.560429078 L578.645505,0.560429078 L578.645505,3.94710462 L567.383667,3.94710462 L567.383667,11.8476551 L578.645505,11.8476551 L578.645505,15.211482 Z" id="Fill-30" fill="#275880" mask="url(#mask-2)"/>
                <path d="M603.470548,20.7972118 L606.836914,20.7972118 L606.836914,17.4765434 L603.470548,17.4765434 L603.470548,20.7972118 Z M586.554941,20.7972118 L589.941617,20.7972118 L589.941617,17.4765434 L586.554941,17.4765434 L586.554941,20.7972118 Z M597.839629,17.4765434 L597.839629,15.2119897 L601.205994,11.8456241 L606.836914,11.8456241 L606.836914,15.2322996 L601.205994,15.2322996 L601.205994,17.4765434 L597.839629,20.7972118 L595.572536,20.7972118 L592.185861,17.4765434 L592.185861,15.2119897 L586.554941,15.2119897 L586.554941,11.8456241 L592.231558,11.8456241 L595.572536,15.2119897 L595.572536,17.4765434 L597.839629,17.4765434 Z M603.470548,0.560936825 L606.836914,3.92476374 L606.836914,9.58107042 L603.470548,9.58107042 L603.470548,3.94761237 L601.205994,3.94761237 L601.205994,6.21470477 L597.839629,9.58107042 L595.572536,9.58107042 L592.185861,6.21470477 L592.185861,3.94761237 L589.941617,3.94761237 L589.941617,9.58107042 L586.554941,9.58107042 L586.554941,3.94761237 L589.941617,0.560936825 L592.185861,0.560936825 L595.572536,3.94761237 L595.572536,6.19185614 L597.839629,6.19185614 L597.839629,3.92476374 L601.205994,0.560936825 L603.470548,0.560936825 Z" id="Fill-31" fill="#275880" mask="url(#mask-2)"/>
                <path d="M629.397149,3.672921 L629.397149,15.211482 L626.010473,15.211482 L626.010473,0.857461341 C626.010473,0.535041705 626.193262,0.469034535 626.421749,0.694982154 L629.397149,3.672921 Z M623.766229,17.4760357 L629.122965,17.4760357 C629.419997,17.4760357 629.488543,17.6613635 629.282905,17.8670012 L626.282118,20.796704 L623.766229,20.796704 L620.377015,17.4760357 L620.377015,0.560429078 L623.766229,0.560429078 L623.766229,17.4760357 Z M609.138025,17.7502193 L609.138025,6.19134839 L612.504391,6.19134839 L612.504391,20.5225204 C612.504391,20.8195527 612.341911,20.8855598 612.113425,20.6824609 L609.138025,17.7502193 Z M612.227668,0.560429078 L614.768944,0.560429078 L618.13531,3.94710462 L618.13531,20.796704 L614.768944,20.796704 L614.768944,3.94710462 L609.412209,3.94710462 C609.092328,3.94710462 609.04663,3.78716418 609.252268,3.55867782 L612.227668,0.560429078 Z" id="Fill-32" fill="#275880" mask="url(#mask-2)"/>
                <path d="M648.591526,3.94761237 L651.957891,3.94761237 L651.957891,0.560936825 L648.591526,0.560936825 L648.591526,3.94761237 Z M642.960606,3.97046101 L646.326972,3.97046101 L646.326972,0.583785461 L642.960606,0.583785461 L642.960606,3.97046101 Z M637.306839,15.2119897 L640.693514,11.8456241 L642.960606,11.8456241 L646.326972,15.2119897 L646.326972,20.7972118 L642.960606,20.7972118 L642.960606,15.2119897 L640.693514,15.2119897 L640.693514,20.7972118 L637.306839,20.7972118 L637.306839,15.2119897 Z M637.306839,3.97046101 L640.696053,3.97046101 L640.696053,0.583785461 L637.306839,0.583785461 L637.306839,3.97046101 Z M648.591526,6.19185614 L651.957891,9.58107042 L651.957891,15.2119897 L651.957891,17.750727 L648.982491,20.6804299 C648.751466,20.8860676 648.591526,20.8200604 648.591526,20.5204894 L648.591526,15.2119897 L648.591526,9.58107042 L635.062595,9.58107042 L635.062595,20.5204894 C635.062595,20.8200604 634.902654,20.8860676 634.674168,20.6804299 L631.675919,17.750727 L631.675919,9.58107042 L635.062595,6.19185614 L648.591526,6.19185614 Z M631.675919,3.97046101 L635.062595,3.97046101 L635.062595,0.583785461 L631.675919,0.583785461 L631.675919,3.97046101 Z" id="Fill-33" fill="#275880" mask="url(#mask-2)"/>
                <path d="M671.130435,3.92476374 L674.517111,3.92476374 L674.517111,0.535549452 L671.130435,0.535549452 L671.130435,3.92476374 Z M668.886192,17.4536948 L674.242927,17.4536948 C674.53996,17.4536948 674.608506,17.6364838 674.402868,17.8421216 L671.427468,20.7972118 L668.886192,20.7972118 L668.886192,20.6804299 L668.886192,20.7718244 L665.496977,17.4308461 L665.496977,15.1637537 L668.886192,11.7999268 L671.130435,11.7999268 L671.130435,6.14615887 L674.517111,6.14615887 L674.517111,11.7999268 L671.130435,15.1637537 L668.886192,15.1637537 L668.886192,17.4536948 Z M665.496977,9.55822179 L665.496977,3.92476374 L663.255272,3.92476374 L663.255272,3.94761237 L663.255272,9.55822179 L659.866058,9.55822179 L659.866058,3.94761237 L663.255272,0.560936825 L663.255272,0.535549452 L665.522365,0.535549452 L665.522365,0.583785461 L668.886192,3.94761237 L668.886192,9.55822179 L665.496977,9.55822179 Z M657.624353,11.7999268 L659.866058,11.7999268 L663.255272,15.1866024 L663.255272,17.4536948 L659.866058,20.7972118 L659.866058,20.7718244 L657.347631,20.7718244 L655.654293,19.1241839 L654.372231,17.8192729 C654.166593,17.5907866 654.21229,17.4308461 654.532171,17.4308461 L659.866058,17.4308461 L659.866058,15.1866024 L657.624353,15.1866024 L654.235139,11.7999268 L654.235139,6.1690075 L657.624353,6.1690075 L657.624353,11.7999268 Z M654.235139,3.94761237 L657.624353,3.94761237 L657.624353,0.560936825 L654.235139,0.560936825 L654.235139,3.94761237 Z" id="Fill-34" fill="#275880" mask="url(#mask-2)"/>
                <path d="M693.712504,3.94761237 L697.078869,3.94761237 L697.078869,0.560936825 L693.712504,0.560936825 L693.712504,3.94761237 Z M688.081584,3.97046101 L691.44795,3.97046101 L691.44795,0.583785461 L688.081584,0.583785461 L688.081584,3.97046101 Z M682.427816,15.2119897 L685.814492,11.8456241 L688.081584,11.8456241 L691.44795,15.2119897 L691.44795,20.7972118 L688.081584,20.7972118 L688.081584,15.2119897 L685.814492,15.2119897 L685.814492,20.7972118 L682.427816,20.7972118 L682.427816,15.2119897 Z M682.427816,3.97046101 L685.814492,3.97046101 L685.814492,0.583785461 L682.427816,0.583785461 L682.427816,3.97046101 Z M693.712504,6.19185614 L697.078869,9.58107042 L697.078869,15.2119897 L697.078869,17.750727 L694.10093,20.6804299 C693.872444,20.8860676 693.712504,20.8200604 693.712504,20.5204894 L693.712504,15.2119897 L693.712504,9.58107042 L680.183573,9.58107042 L680.183573,20.5204894 C680.183573,20.8200604 680.023632,20.8860676 679.795146,20.6804299 L676.796897,17.750727 L676.796897,9.58107042 L680.183573,6.19185614 L693.712504,6.19185614 Z M676.796897,3.97046101 L680.183573,3.97046101 L680.183573,0.583785461 L676.796897,0.583785461 L676.796897,3.97046101 Z" id="Fill-35" fill="#275880" mask="url(#mask-2)"/>
                <path d="M714.00717,0.560429078 L714.00717,3.92425599 L704.987036,3.92425599 L704.987036,0.535041705 L714.00717,0.560429078 Z M719.363905,17.453187 C719.660938,17.453187 719.729483,17.6359761 719.523846,17.8416138 L716.548446,20.796704 L702.468609,20.7738554 L699.493208,17.8416138 C699.264722,17.6359761 699.333268,17.453187 699.653149,17.453187 L719.363905,17.453187 Z M719.638089,3.65007236 L719.638089,11.8222677 L716.271723,15.211482 L714.00717,15.211482 L710.640804,11.8222677 L710.640804,9.55771404 L708.37625,9.55771404 L708.37625,11.8222677 L704.987036,15.1860946 L702.745331,15.1860946 L699.356117,11.8222677 L699.356117,3.65007236 L702.354365,0.674672256 C702.560003,0.469034535 702.745331,0.535041705 702.745331,0.834612705 L702.745331,11.8222677 L704.987036,11.8222677 L704.987036,9.55771404 L708.37625,6.19134839 L710.640804,6.19134839 L714.00717,9.55771404 L714.00717,11.8222677 L716.271723,11.8222677 L716.271723,0.834612705 C716.271723,0.535041705 716.457051,0.469034535 716.662689,0.674672256 L719.638089,3.65007236 Z" id="Fill-36" fill="#275880" mask="url(#mask-2)"/>
            </g>
        </g>
    </g>
</svg>